<mxfile host="65bd71144e" compressed="true">
    <diagram id="Ht1M8jgEwFfnCIfOTk4-" name="Page-1">
        <mxGraphModel dx="832" dy="2228" grid="1" gridSize="10" guides="1" tooltips="1" connect="1" arrows="1" fold="1" page="1" pageScale="1" pageWidth="1169" pageHeight="827" background="none" math="0" shadow="1">
            <root>
                <mxCell id="0"/>
                <mxCell id="1" parent="0"/>
                <mxCell id="XDn9xJ6heZTMBlF5tKKQ-38" value="" style="group" parent="1" vertex="1" connectable="0">
                    <mxGeometry x="288" y="-101" width="439" height="78" as="geometry"/>
                </mxCell>
                <mxCell id="XDn9xJ6heZTMBlF5tKKQ-2" value="" style="outlineConnect=0;fontColor=#232F3E;gradientColor=none;fillColor=#232F3E;strokeColor=none;dashed=0;verticalLabelPosition=bottom;verticalAlign=top;align=center;html=1;fontSize=12;fontStyle=0;aspect=fixed;pointerEvents=1;shape=mxgraph.aws4.generic_database;" parent="XDn9xJ6heZTMBlF5tKKQ-38" vertex="1">
                    <mxGeometry width="59" height="78" as="geometry"/>
                </mxCell>
                <mxCell id="XDn9xJ6heZTMBlF5tKKQ-3" value="" style="outlineConnect=0;fontColor=#232F3E;gradientColor=none;fillColor=#232F3E;strokeColor=none;dashed=0;verticalLabelPosition=bottom;verticalAlign=top;align=center;html=1;fontSize=12;fontStyle=0;aspect=fixed;pointerEvents=1;shape=mxgraph.aws4.generic_database;" parent="XDn9xJ6heZTMBlF5tKKQ-38" vertex="1">
                    <mxGeometry x="120" width="59" height="78" as="geometry"/>
                </mxCell>
                <mxCell id="XDn9xJ6heZTMBlF5tKKQ-37" value="" style="group" parent="XDn9xJ6heZTMBlF5tKKQ-38" vertex="1" connectable="0">
                    <mxGeometry x="245.5" width="193.5" height="78" as="geometry"/>
                </mxCell>
                <mxCell id="XDn9xJ6heZTMBlF5tKKQ-4" value="" style="outlineConnect=0;fontColor=#232F3E;gradientColor=none;fillColor=#232F3E;strokeColor=none;dashed=0;verticalLabelPosition=bottom;verticalAlign=top;align=center;html=1;fontSize=12;fontStyle=0;aspect=fixed;pointerEvents=1;shape=mxgraph.aws4.generic_database;" parent="XDn9xJ6heZTMBlF5tKKQ-37" vertex="1">
                    <mxGeometry width="59" height="78" as="geometry"/>
                </mxCell>
                <mxCell id="XDn9xJ6heZTMBlF5tKKQ-5" value="" style="outlineConnect=0;fontColor=#232F3E;gradientColor=none;fillColor=#232F3E;strokeColor=none;dashed=0;verticalLabelPosition=bottom;verticalAlign=top;align=center;html=1;fontSize=12;fontStyle=0;aspect=fixed;pointerEvents=1;shape=mxgraph.aws4.generic_database;" parent="XDn9xJ6heZTMBlF5tKKQ-37" vertex="1">
                    <mxGeometry x="134.5" width="59" height="78" as="geometry"/>
                </mxCell>
                <object label="sdsdsd" Name="Message Broker" id="2">
                    <mxCell style="points=[[0,0,0],[0.25,0,0],[0.5,0,0],[0.75,0,0],[1,0,0],[0,1,0],[0.25,1,0],[0.5,1,0],[0.75,1,0],[1,1,0],[0,0.25,0],[0,0.5,0],[0,0.75,0],[1,0.25,0],[1,0.5,0],[1,0.75,0]];outlineConnect=0;fontColor=#232F3E;gradientColor=#F34482;gradientDirection=north;fillColor=#BC1356;strokeColor=#ffffff;dashed=0;verticalLabelPosition=bottom;verticalAlign=top;align=center;html=1;fontSize=12;fontStyle=0;aspect=fixed;shape=mxgraph.aws4.resourceIcon;resIcon=mxgraph.aws4.sqs;" vertex="1" parent="1">
                        <mxGeometry x="430" y="-570" width="78" height="78" as="geometry"/>
                    </mxCell>
                </object>
                <mxCell id="3" value="Users" style="shape=hexagon;perimeter=hexagonPerimeter2;whiteSpace=wrap;html=1;fixedSize=1;" vertex="1" parent="1">
                    <mxGeometry x="270" y="-300" width="120" height="100" as="geometry"/>
                </mxCell>
                <mxCell id="4" value="Patients" style="shape=hexagon;perimeter=hexagonPerimeter2;whiteSpace=wrap;html=1;fixedSize=1;" vertex="1" parent="1">
                    <mxGeometry x="570" y="-300" width="120" height="100" as="geometry"/>
                </mxCell>
                <mxCell id="5" value="&lt;h1&gt;Use case: User adds a Patient&lt;/h1&gt;&lt;div&gt;Users can add many patiens. It can be a son adding his old parents to the system.&lt;/div&gt;" style="text;html=1;strokeColor=none;fillColor=none;spacing=5;spacingTop=-20;whiteSpace=wrap;overflow=hidden;rounded=0;" vertex="1" parent="1">
                    <mxGeometry y="-1030" width="320" height="120" as="geometry"/>
                </mxCell>
                <mxCell id="7" value="" style="endArrow=classic;html=1;entryX=0;entryY=1;entryDx=0;entryDy=0;entryPerimeter=0;exitX=0.5;exitY=0;exitDx=0;exitDy=0;" edge="1" parent="1" source="3" target="2">
                    <mxGeometry relative="1" as="geometry">
                        <mxPoint x="310" y="-480" as="sourcePoint"/>
                        <mxPoint x="410" y="-480" as="targetPoint"/>
                        <Array as="points">
                            <mxPoint x="330" y="-480"/>
                        </Array>
                    </mxGeometry>
                </mxCell>
                <mxCell id="8" value="" style="shape=message;html=1;outlineConnect=0;" vertex="1" parent="7">
                    <mxGeometry width="20" height="14" relative="1" as="geometry">
                        <mxPoint x="-10" y="-7" as="offset"/>
                    </mxGeometry>
                </mxCell>
                <mxCell id="9" value="USER_ADDS" style="edgeLabel;html=1;align=center;verticalAlign=middle;resizable=0;points=[];" vertex="1" connectable="0" parent="7">
                    <mxGeometry x="-0.0394" y="-1" relative="1" as="geometry">
                        <mxPoint as="offset"/>
                    </mxGeometry>
                </mxCell>
                <object label="" name="APIGateway&#10;" id="10">
                    <mxCell style="outlineConnect=0;fontColor=#232F3E;gradientColor=none;fillColor=#5A30B5;strokeColor=none;dashed=0;verticalLabelPosition=bottom;verticalAlign=top;align=center;html=1;fontSize=12;fontStyle=0;aspect=fixed;pointerEvents=1;shape=mxgraph.aws4.gateway_load_balancer;rotation=90;fontFamily=Tahoma;comic=0;" vertex="1" parent="1">
                        <mxGeometry x="430" y="-730" width="80" height="80" as="geometry"/>
                    </mxCell>
                </object>
                <mxCell id="11" value="" style="outlineConnect=0;fontColor=#ffffff;fillColor=#a20025;strokeColor=#6F0000;dashed=0;verticalLabelPosition=bottom;verticalAlign=top;align=center;html=1;fontSize=12;fontStyle=0;aspect=fixed;pointerEvents=1;shape=mxgraph.aws4.client;" vertex="1" parent="1">
                    <mxGeometry x="430" y="-910" width="78" height="76" as="geometry"/>
                </mxCell>
                <mxCell id="12" value="" style="endArrow=classic;html=1;" edge="1" parent="1" target="10">
                    <mxGeometry relative="1" as="geometry">
                        <mxPoint x="480" y="-830" as="sourcePoint"/>
                        <mxPoint x="470" y="-740" as="targetPoint"/>
                        <Array as="points">
                            <mxPoint x="470" y="-790"/>
                        </Array>
                    </mxGeometry>
                </mxCell>
                <mxCell id="13" value="" style="shape=message;html=1;outlineConnect=0;" vertex="1" parent="12">
                    <mxGeometry width="20" height="14" relative="1" as="geometry">
                        <mxPoint x="-10" y="-7" as="offset"/>
                    </mxGeometry>
                </mxCell>
                <mxCell id="14" value="USER_ADDS" style="edgeLabel;html=1;align=center;verticalAlign=middle;resizable=0;points=[];" vertex="1" connectable="0" parent="12">
                    <mxGeometry x="-0.0394" y="-1" relative="1" as="geometry">
                        <mxPoint as="offset"/>
                    </mxGeometry>
                </mxCell>
                <mxCell id="15" value="Text" style="edgeLabel;html=1;align=center;verticalAlign=middle;resizable=0;points=[];" vertex="1" connectable="0" parent="12">
                    <mxGeometry x="0.0089" y="-3" relative="1" as="geometry">
                        <mxPoint as="offset"/>
                    </mxGeometry>
                </mxCell>
            </root>
        </mxGraphModel>
    </diagram>
</mxfile>